<svg width="1440" height="984" fill="none" xmlns="http://www.w3.org/2000/svg"><mask id="mask0_1264_891" style="mask-type:alpha" maskUnits="userSpaceOnUse" x="0" y="0" width="1440" height="984"><path fill="#C4C4C4" d="M0 0h1440v984H0z"/></mask><g mask="url(#mask0_1264_891)"><g filter="url(#filter0_f_1264_891)"><ellipse cx="1251.19" cy="346.272" rx="499.769" ry="365.428" fill="#C1BCFF"/><ellipse cx="113.216" cy="430.908" rx="499.769" ry="365.428" fill="#C1BCFF"/><ellipse cx="50.918" cy="447.337" rx="389.017" ry="284.277" fill="#fff"/><ellipse cx="579.759" cy="441.363" rx="389.017" ry="284.277" fill="#DEB5FF"/><ellipse cx="1023.38" cy="862.616" rx="389.017" ry="284.277" fill="#DEB5FF"/><ellipse cx="243.351" cy="711.701" rx="354.407" ry="258.887" fill="#C173FF"/><ellipse cx="480.082" cy="605.159" rx="354.407" ry="258.887" fill="#FF6CDA"/><ellipse cx="1375.61" cy="967.371" rx="431.241" ry="315.145" fill="#A3E0FF"/><ellipse cx="-28.029" cy="743.881" rx="431.241" ry="315.145" fill="#A3E0FF"/><ellipse cx="632.171" cy="-52.474" rx="431.241" ry="315.145" fill="#A3E0FF"/><ellipse cx="93.834" cy="470.238" rx="128.749" ry="63.228" fill="#fff"/><ellipse cx="93.834" cy="446.342" rx="128.749" ry="63.228" fill="#5BC8FF"/></g><g filter="url(#filter1_f_1264_891)"><ellipse cx="1251.19" cy="346.272" rx="499.769" ry="365.428" fill="#C1BCFF"/><ellipse cx="113.216" cy="430.908" rx="499.769" ry="365.428" fill="#C1BCFF"/><ellipse cx="50.918" cy="447.337" rx="389.017" ry="284.277" fill="#fff"/><ellipse cx="579.759" cy="441.363" rx="389.017" ry="284.277" fill="#DEB5FF"/><ellipse cx="1023.38" cy="862.616" rx="389.017" ry="284.277" fill="#DEB5FF"/><ellipse cx="243.351" cy="711.701" rx="354.407" ry="258.887" fill="#C173FF"/><ellipse cx="480.082" cy="605.159" rx="354.407" ry="258.887" fill="#FF6CDA"/><ellipse cx="1375.61" cy="967.371" rx="431.241" ry="315.145" fill="#A3E0FF"/><ellipse cx="-28.029" cy="743.881" rx="431.241" ry="315.145" fill="#A3E0FF"/><ellipse cx="632.171" cy="-52.474" rx="431.241" ry="315.145" fill="#A3E0FF"/><ellipse cx="93.834" cy="470.238" rx="128.749" ry="63.228" fill="#fff"/><ellipse cx="93.834" cy="446.342" rx="128.749" ry="63.228" fill="#5BC8FF"/></g></g><defs><filter id="filter0_f_1264_891" x="-742.86" y="-651.209" width="2833.3" height="2217.32" filterUnits="userSpaceOnUse" color-interpolation-filters="sRGB"><feFlood flood-opacity="0" result="BackgroundImageFix"/><feBlend mode="normal" in="SourceGraphic" in2="BackgroundImageFix" result="shape"/><feGaussianBlur stdDeviation="141.795" result="effect1_foregroundBlur_1264_891"/></filter><filter id="filter1_f_1264_891" x="-742.86" y="-651.209" width="2833.3" height="2217.32" filterUnits="userSpaceOnUse" color-interpolation-filters="sRGB"><feFlood flood-opacity="0" result="BackgroundImageFix"/><feBlend mode="normal" in="SourceGraphic" in2="BackgroundImageFix" result="shape"/><feGaussianBlur stdDeviation="141.795" result="effect1_foregroundBlur_1264_891"/></filter></defs></svg>