<svg width="230" height="24" fill="none" xmlns="http://www.w3.org/2000/svg"><path d="M229.7 9.4H208c-.3 0-.5-.1-.8-.4-.2-.3-.3-.6-.3-.9V6.5c0-.4.1-.7.3-.9.2-.3.5-.4.8-.4h21.7V0H208c-1.6 0-3 .7-4.1 2.1-1.1 1.4-1.7 3.1-1.7 5v7.5H224c.3 0 .5.1.7.4.2.2.3.6.3.9v1.6c0 .4-.1.7-.3.9-.2.2-.5.4-.7.4h-21.7V24H224c1.6 0 3-.7 4.1-2.1 1.1-1.4 1.7-3.1 1.7-5l-.1-7.5z" fill="url(#paint0_linear_148_108)"/><path d="M57.2 0v18.8h-1.9c-.3 0-.6-.2-.9-.6L44.4 0h-10v24h4.8V5.2H41c.3 0 .6.2.9.6l10 18.2H62V0h-4.8z" fill="url(#paint1_linear_148_108)"/><path d="M70.9 0h-4.8v24h4.8V0z" fill="url(#paint2_linear_148_108)"/><path d="M19.9 0L.3 24H7L22.1 5.5c.2-.2.5-.4.8-.4h2.6V24h4.8V0H19.9z" fill="url(#paint3_linear_148_108)"/><path d="M80.2 5.6c.2-.3.5-.4.7-.4h21.7V0H80.9c-1.6 0-3 .7-4.1 2.1-1.1 1.4-1.7 3.1-1.7 5V24h27.6v-5.2H80.9c-.3 0-.5-.1-.7-.4-.2-.2-.3-.6-.3-.9v-11c0-.4.1-.7.3-.9z" fill="url(#paint4_linear_148_108)"/><path d="M129.7 0v9.4h-18.1V0h-4.7v24h4.7v-9.4h18.1V24h4.7V0h-4.7z" fill="url(#paint5_linear_148_108)"/><path d="M143.7 5.6c.2-.3.5-.4.8-.4h21.7V0h-21.7c-1.6 0-3 .7-4.1 2.1-1.1 1.4-1.7 3.1-1.7 5V24h27.6v-5.2h-21.7c-.3 0-.5-.1-.8-.4-.2-.3-.3-.6-.3-.9v-2.9h20.1V9.4h-20.1V6.5c-.1-.4 0-.7.2-.9z" fill="url(#paint6_linear_148_108)"/><path d="M198 9.4h-21.8c-.3 0-.5-.1-.8-.4-.2-.3-.3-.6-.3-.9V6.5c0-.4.1-.7.3-.9.2-.3.5-.4.8-.4H198V0h-21.7c-1.6 0-3 .7-4.1 2.1-1.1 1.4-1.7 3.1-1.7 5v7.5h21.8c.3 0 .5.1.7.4.2.2.3.6.3.9v1.6c0 .4-.1.7-.3.9-.2.2-.5.4-.7.4h-21.7V24h21.7c1.6 0 3-.7 4.1-2.1 1.1-1.4 1.7-3.1 1.7-5V9.4h-.1z" fill="url(#paint7_linear_148_108)"/><defs><linearGradient id="paint0_linear_148_108" x1="230.131" y1="11.994" x2="2.478" y2="11.994" gradientUnits="userSpaceOnUse"><stop stop-color="#00AEFA"/><stop offset="1" stop-color="#00FFFB"/></linearGradient><linearGradient id="paint1_linear_148_108" x1="230.131" y1="11.994" x2="2.478" y2="11.994" gradientUnits="userSpaceOnUse"><stop stop-color="#00AEFA"/><stop offset="1" stop-color="#00FFFB"/></linearGradient><linearGradient id="paint2_linear_148_108" x1="230.131" y1="11.995" x2="2.478" y2="11.995" gradientUnits="userSpaceOnUse"><stop stop-color="#00AEFA"/><stop offset="1" stop-color="#00FFFB"/></linearGradient><linearGradient id="paint3_linear_148_108" x1="230.131" y1="12.001" x2="2.478" y2="12.001" gradientUnits="userSpaceOnUse"><stop stop-color="#00AEFA"/><stop offset="1" stop-color="#00FFFB"/></linearGradient><linearGradient id="paint4_linear_148_108" x1="230.131" y1="11.998" x2="2.478" y2="11.998" gradientUnits="userSpaceOnUse"><stop stop-color="#00AEFA"/><stop offset="1" stop-color="#00FFFB"/></linearGradient><linearGradient id="paint5_linear_148_108" x1="230.131" y1="11.995" x2="2.478" y2="11.995" gradientUnits="userSpaceOnUse"><stop stop-color="#00AEFA"/><stop offset="1" stop-color="#00FFFB"/></linearGradient><linearGradient id="paint6_linear_148_108" x1="230.131" y1="11.998" x2="2.478" y2="11.998" gradientUnits="userSpaceOnUse"><stop stop-color="#00AEFA"/><stop offset="1" stop-color="#00FFFB"/></linearGradient><linearGradient id="paint7_linear_148_108" x1="230.131" y1="11.994" x2="2.478" y2="11.994" gradientUnits="userSpaceOnUse"><stop stop-color="#00AEFA"/><stop offset="1" stop-color="#00FFFB"/></linearGradient></defs></svg>