<svg width="1440" height="509" fill="none" xmlns="http://www.w3.org/2000/svg"><mask id="mask0_1280_266" style="mask-type:alpha" maskUnits="userSpaceOnUse" x="-1" y="0" width="1441" height="509"><path fill-rule="evenodd" clip-rule="evenodd" d="M-.001 0H1440v509H-.001V0z" fill="#fff"/></mask><g mask="url(#mask0_1280_266)"><mask id="mask1_1280_266" style="mask-type:alpha" maskUnits="userSpaceOnUse" x="-71" y="-669" width="1549" height="1179"><path transform="rotate(-180 1477.03 509)" fill="#C4C4C4" d="M1477.03 509h1548v1177.28h-1548z"/></mask><g mask="url(#mask1_1280_266)"><g filter="url(#filter0_f_1280_266)"><ellipse cx="131.992" cy="80.941" rx="537.251" ry="451.74" transform="rotate(-180 131.992 80.941)" fill="#C1BCFF"/><ellipse cx="1355.32" cy="-23.684" rx="537.251" ry="451.74" transform="rotate(-180 1355.32 -23.684)" fill="#C1BCFF"/><ellipse cx="1422.29" cy="-43.995" rx="418.193" ry="351.422" transform="rotate(-180 1422.29 -43.995)" fill="#fff"/><ellipse cx="853.785" cy="-36.609" rx="418.193" ry="351.422" transform="rotate(-180 853.785 -36.61)" fill="#DEB5FF"/><ellipse cx="960.938" cy="-239.092" rx="380.987" ry="320.034" transform="rotate(-180 960.938 -239.092)" fill="#FF6CDA"/><ellipse cx="797.443" cy="573.869" rx="463.584" ry="389.579" transform="rotate(-180 797.443 573.869)" fill="#A3E0FF"/><ellipse cx="1376.15" cy="-72.305" rx="138.405" ry="78.162" transform="rotate(-180 1376.15 -72.305)" fill="#fff"/><ellipse cx="1376.15" cy="-42.764" rx="138.405" ry="78.162" transform="rotate(-180 1376.15 -42.764)" fill="#5BC8FF"/></g><g filter="url(#filter1_f_1280_266)"><ellipse cx="131.992" cy="80.941" rx="537.251" ry="451.74" transform="rotate(-180 131.992 80.941)" fill="#C1BCFF"/><ellipse cx="1355.32" cy="-23.684" rx="537.251" ry="451.74" transform="rotate(-180 1355.32 -23.684)" fill="#C1BCFF"/><ellipse cx="1422.29" cy="-43.995" rx="418.193" ry="351.422" transform="rotate(-180 1422.29 -43.995)" fill="#fff"/><ellipse cx="853.785" cy="-36.609" rx="418.193" ry="351.422" transform="rotate(-180 853.785 -36.61)" fill="#DEB5FF"/><ellipse cx="960.938" cy="-239.092" rx="380.987" ry="320.034" transform="rotate(-180 960.938 -239.092)" fill="#FF6CDA"/><ellipse cx="797.443" cy="573.869" rx="463.584" ry="389.579" transform="rotate(-180 797.443 573.869)" fill="#A3E0FF"/><ellipse cx="1376.15" cy="-72.305" rx="138.405" ry="78.162" transform="rotate(-180 1376.15 -72.305)" fill="#fff"/><ellipse cx="1376.15" cy="-42.764" rx="138.405" ry="78.162" transform="rotate(-180 1376.15 -42.764)" fill="#5BC8FF"/></g><path d="M-242.456 414.84H1454.92m-1713.093 0H1454.92m-445.8-84.74v408.585M1158.68 330.1v408.585M1306.33 330.1v408.585M564.069 330.1v408.585M713.638 330.1v408.585M861.291 330.1v408.585M119.016 330.1v408.585M268.578 330.1v408.585M416.231 330.1v408.585" opacity=".4" stroke="#fff"/><path d="M581.365 549.165c-32.073-65.242-90.145-109.514-150.581-140.367-60.437-30.854-124.96-50.707-185.408-81.531-41.326-21.075-81.254-47.82-111.395-85.906-33.954-42.907-76.21-106.357-99.066-157.682C13.41 35.404-8.285-30.586-29.371-69.251c-35.01-36.991-75.543-33.731-123.621-34.888-12.721-.307-26.455 1.6-35.859 11.215-7.835 8.001-11.299 19.937-14.354 31.317-55.224 205.658-82.084 419.755-95.979 633.983-2.74 42.193-4.859 85.618 6.777 125.869 5.134 17.779 13.179 34.976 25.717 47.264 10.701 10.49 24.068 16.855 37.316 22.643 45.37 19.819 92.4 34.85 140.258 44.839 125.11 26.125 253.651 17.564 380.669 8.903 52.444-3.573 105.064-7.177 156.628-18.475 27.273-5.977 54.126-14.053 81.363-20.219 13.627-3.087 27.347-5.702 41.189-7.299 8.924-1.03 18.235-1.726 26.028-7.274 13.637-9.702 14.802-29.696 15.346-46.047.942-28.092-.276-56.514-4.295-84.268-4.49-31.057-12.869-61.526-26.447-89.147z" fill="url(#paint0_linear_1280_266)"/></g></g><defs><filter id="filter0_f_1280_266" x="-748.932" y="-1360.03" width="3003.26" height="2607.07" filterUnits="userSpaceOnUse" color-interpolation-filters="sRGB"><feFlood flood-opacity="0" result="BackgroundImageFix"/><feBlend mode="normal" in="SourceGraphic" in2="BackgroundImageFix" result="shape"/><feGaussianBlur stdDeviation="141.795" result="effect1_foregroundBlur_1280_266"/></filter><filter id="filter1_f_1280_266" x="-748.932" y="-1360.03" width="3003.26" height="2607.07" filterUnits="userSpaceOnUse" color-interpolation-filters="sRGB"><feFlood flood-opacity="0" result="BackgroundImageFix"/><feBlend mode="normal" in="SourceGraphic" in2="BackgroundImageFix" result="shape"/><feGaussianBlur stdDeviation="141.795" result="effect1_foregroundBlur_1280_266"/></filter><linearGradient id="paint0_linear_1280_266" x1="-78.502" y1="186.964" x2="552.727" y2="514.403" gradientUnits="userSpaceOnUse"><stop stop-color="#A8A0FF"/><stop offset=".89" stop-color="#C7E3FF"/></linearGradient></defs></svg>