<svg width="24" height="48" fill="none" xmlns="http://www.w3.org/2000/svg"><g clip-path="url(#clip0_217_77)" fill="#fff"><path d="M12 1c6.1 0 11 4.9 11 11v14c0 6.1-4.9 11-11 11S1 32.1 1 26V12C1 5.9 5.9 1 12 1zm0-1C5.4 0 0 5.4 0 12v14c0 6.6 5.4 12 12 12s12-5.4 12-12V12c0-6.6-5.4-12-12-12z"/><path d="M12 16.5c-1.4 0-2.5-1.1-2.5-2.5V8c0-1.4 1.1-2.5 2.5-2.5s2.5 1.1 2.5 2.5v6c0 1.4-1.1 2.5-2.5 2.5zm0-10c-.8 0-1.5.7-1.5 1.5v6c0 .8.7 1.5 1.5 1.5s1.5-.7 1.5-1.5V8c0-.8-.7-1.5-1.5-1.5zm11.1 34.9l-.3-.5c-.1-.1-.2-.1-.3-.1L12 46.9 1.5 40.8c-.1-.1-.2 0-.3.1l-.3.5c-.1.1 0 .2.1.3L11.9 48h.2L23 41.7c.1-.1.1-.2.1-.3z"/></g><defs><clipPath id="clip0_217_77"><path fill="#fff" d="M0 0h24v48H0z"/></clipPath></defs></svg>