<svg width="390" height="805" fill="none" xmlns="http://www.w3.org/2000/svg"><mask id="mask0_1264_2301" style="mask-type:alpha" maskUnits="userSpaceOnUse" x="0" y="0" width="390" height="805"><path d="M0 18.413s88.297-36.364 198.602-6.887C297.302 44.737 390 14.848 390 14.848v176s-83.735 24.759-198.001-13.435-191.999 0-191.999 0v-159zm0 606s88.297-36.364 198.602-6.887c98.7 33.211 191.398 3.322 191.398 3.322v176s-83.735 24.759-198.001-13.435-191.999 0-191.999 0v-159z" fill="#F9F9FB"/><path fill="#F9F9FB" d="M0 65h390v590H0z"/></mask><g filter="url(#filter0_f_1264_2301)" mask="url(#mask0_1264_2301)"><ellipse cx="-185.735" cy="475.058" rx="325.826" ry="378.236" transform="rotate(-180 -185.735 475.058)" fill="#55C3FF"/><ellipse cx="556.174" cy="387.457" rx="325.826" ry="378.236" transform="rotate(-180 556.174 387.457)" fill="#C1BCFF"/><ellipse cx="596.789" cy="370.45" rx="253.621" ry="294.241" transform="rotate(-180 596.789 370.45)" fill="#fff"/><ellipse cx="252.009" cy="376.635" rx="253.621" ry="294.241" transform="rotate(-180 252.009 376.635)" fill="#99AEF2"/><ellipse cx="-37.212" cy="-59.382" rx="253.621" ry="294.241" transform="rotate(-180 -37.212 -59.382)" fill="#DEB5FF"/><ellipse cx="471.334" cy="96.822" rx="231.057" ry="267.96" transform="rotate(-180 471.334 96.822)" fill="#C173FF"/><ellipse cx="516.203" cy="229.379" rx="231.057" ry="267.96" transform="rotate(-180 516.203 229.379)" fill="#D5B6FD"/><ellipse cx="-266.851" cy="-167.81" rx="281.149" ry="326.19" transform="rotate(-180 -266.851 -167.81)" fill="#F1F0FF"/><ellipse cx="446.773" cy="782.977" rx="281.149" ry="326.19" transform="rotate(-180 446.773 782.977)" fill="#55C3FF"/><ellipse cx="119.28" cy="887.78" rx="281.149" ry="326.19" transform="rotate(-180 119.28 887.78)" fill="#55C3FF"/></g><defs><filter id="filter0_f_1264_2301" x="-831.591" y="-777.59" width="1997.18" height="2275.15" filterUnits="userSpaceOnUse" color-interpolation-filters="sRGB"><feFlood flood-opacity="0" result="BackgroundImageFix"/><feBlend mode="normal" in="SourceGraphic" in2="BackgroundImageFix" result="shape"/><feGaussianBlur stdDeviation="141.795" result="effect1_foregroundBlur_1264_2301"/></filter></defs></svg>