<svg width="1440" height="753" fill="none" xmlns="http://www.w3.org/2000/svg"><mask id="mask0_1264_1186" style="mask-type:alpha" maskUnits="userSpaceOnUse" x="-4" y="0" width="1475" height="753"><path d="M-4 67.394S329.947-67.314 747.122 44.168C1120.41 169.775 1448.3 67.394 1448.3 67.394l22.7 654.748s-316.69 93.871-748.85-50.581-726.15 0-726.15 0V67.394z" fill="#F9F9FB"/></mask><g filter="url(#filter0_f_1264_1186)" mask="url(#mask0_1264_1186)"><ellipse cx="174.312" cy="540.788" rx="526.971" ry="404.16" transform="rotate(-180 174.312 540.788)" fill="#55C3FF"/><ellipse cx="1374.23" cy="447.182" rx="526.971" ry="404.16" transform="rotate(-180 1374.23 447.182)" fill="#C1BCFF"/><ellipse cx="1439.92" cy="429.011" rx="410.191" ry="314.408" transform="rotate(-180 1439.92 429.011)" fill="#fff"/><ellipse cx="882.292" cy="435.619" rx="410.191" ry="314.408" transform="rotate(-180 882.292 435.619)" fill="#99AEF2"/><ellipse cx="414.524" cy="-30.282" rx="410.191" ry="314.408" transform="rotate(-180 414.524 -30.282)" fill="#DEB5FF"/><ellipse cx="1237.01" cy="136.628" rx="373.697" ry="286.326" transform="rotate(-180 1237.01 136.628)" fill="#C173FF"/><ellipse cx="1309.58" cy="278.271" rx="373.697" ry="286.326" transform="rotate(-180 1309.58 278.271)" fill="#D5B6FD"/><ellipse cx="43.121" cy="-146.141" rx="454.713" ry="348.546" transform="rotate(-180 43.121 -146.141)" fill="#F1F0FF"/><ellipse cx="1197.29" cy="869.81" rx="454.713" ry="348.546" transform="rotate(-180 1197.29 869.81)" fill="#55C3FF"/><ellipse cx="667.624" cy="981.797" rx="454.713" ry="348.546" transform="rotate(-180 667.624 981.797)" fill="#55C3FF"/><ellipse cx="1394.67" cy="403.683" rx="135.757" ry="69.93" transform="rotate(-180 1394.67 403.683)" fill="#fff"/><ellipse cx="1394.67" cy="430.112" rx="135.757" ry="69.93" transform="rotate(-180 1394.67 430.112)" fill="#5BC8FF"/></g><defs><filter id="filter0_f_1264_1186" x="-695.182" y="-778.278" width="2879.97" height="2392.21" filterUnits="userSpaceOnUse" color-interpolation-filters="sRGB"><feFlood flood-opacity="0" result="BackgroundImageFix"/><feBlend mode="normal" in="SourceGraphic" in2="BackgroundImageFix" result="shape"/><feGaussianBlur stdDeviation="141.795" result="effect1_foregroundBlur_1264_1186"/></filter></defs></svg>