<svg width="12" height="12" fill="none" xmlns="http://www.w3.org/2000/svg"><path d="M6.7 6L11.9.8c.1-.1.1-.2 0-.3l-.4-.4c-.1-.1-.2-.1-.3 0L6 5.3.8.1C.7 0 .6 0 .5.1L.1.5C0 .6 0 .7.1.8L5.3 6 .1 11.2c-.1.1-.1.2 0 .3l.4.4c.1.1.2.1.3 0L6 6.7l5.2 5.2c.1.1.2.1.3 0l.4-.4c.1-.1.1-.2 0-.3L6.7 6z" fill="url(#paint0_linear_148_428)"/><defs><linearGradient id="paint0_linear_148_428" x1=".271" y1=".271" x2="11.729" y2="11.729" gradientUnits="userSpaceOnUse"><stop stop-color="#00AEFA"/><stop offset="1" stop-color="#00FFFB"/></linearGradient></defs></svg>