<svg width="230" height="24" viewBox="0 0 230 24" fill="none" xmlns="http://www.w3.org/2000/svg">
<path d="M229.7 9.4H208.3H208C207.7 9.4 207.5 9.3 207.2 9C207 8.7 206.9 8.4 206.9 8.1V6.5C206.9 6.1 207 5.8 207.2 5.6C207.4 5.3 207.7 5.2 208 5.2H229.7V0H208C206.4 0 205 0.7 203.9 2.1C202.8 3.5 202.2 5.2 202.2 7.1V14.6H223.6H224C224.3 14.6 224.5 14.7 224.7 15C224.9 15.2 225 15.6 225 15.9V17.5C225 17.9 224.9 18.2 224.7 18.4C224.5 18.6 224.2 18.8 224 18.8H202.3V24H224C225.6 24 227 23.3 228.1 21.9C229.2 20.5 229.8 18.8 229.8 16.9L229.7 9.4Z" fill="url(#paint0_linear_148_108)"/>
<path d="M57.2001 0V18.8H55.3001C55.0001 18.8 54.7001 18.6 54.4001 18.2L44.4001 0H34.4001V24H39.2001V5.2H41.0001C41.3001 5.2 41.6001 5.4 41.9001 5.8L51.9001 24H62.0001V0H57.2001Z" fill="url(#paint1_linear_148_108)"/>
<path d="M70.9001 0H66.1001V24H70.9001V0Z" fill="url(#paint2_linear_148_108)"/>
<path d="M19.9 0L0.300049 24H7.00005L22.1 5.5C22.3 5.3 22.6 5.1 22.9 5.1H25.5V24H30.3V0H19.9Z" fill="url(#paint3_linear_148_108)"/>
<path d="M80.2001 5.6C80.4001 5.3 80.7001 5.2 80.9001 5.2H102.6V0H80.9001C79.3001 0 77.9001 0.7 76.8001 2.1C75.7001 3.5 75.1001 5.2 75.1001 7.1V24H102.7V18.8H80.9001C80.6001 18.8 80.4001 18.7 80.2001 18.4C80.0001 18.2 79.9001 17.8 79.9001 17.5V6.5C79.9001 6.1 80.0001 5.8 80.2001 5.6Z" fill="url(#paint4_linear_148_108)"/>
<path d="M129.7 0V9.4H111.6V0H106.9V24H111.6V14.6H129.7V24H134.4V0H129.7Z" fill="url(#paint5_linear_148_108)"/>
<path d="M143.7 5.6C143.9 5.3 144.2 5.2 144.5 5.2H166.2V0H144.5C142.9 0 141.5 0.7 140.4 2.1C139.3 3.5 138.7 5.2 138.7 7.1V24H166.3V18.8H144.6C144.3 18.8 144.1 18.7 143.8 18.4C143.6 18.1 143.5 17.8 143.5 17.5V14.6H163.6V9.4H143.5V6.5C143.4 6.1 143.5 5.8 143.7 5.6Z" fill="url(#paint6_linear_148_108)"/>
<path d="M198 9.4H176.6H176.2C175.9 9.4 175.7 9.3 175.4 9C175.2 8.7 175.1 8.4 175.1 8.1V6.5C175.1 6.1 175.2 5.8 175.4 5.6C175.6 5.3 175.9 5.2 176.2 5.2H198V0H176.3C174.7 0 173.3 0.7 172.2 2.1C171.1 3.5 170.5 5.2 170.5 7.1V14.6H191.9H192.3C192.6 14.6 192.8 14.7 193 15C193.2 15.2 193.3 15.6 193.3 15.9V17.5C193.3 17.9 193.2 18.2 193 18.4C192.8 18.6 192.5 18.8 192.3 18.8H170.6V24H192.3C193.9 24 195.3 23.3 196.4 21.9C197.5 20.5 198.1 18.8 198.1 16.9V9.4H198Z" fill="url(#paint7_linear_148_108)"/>
<defs>
<linearGradient id="paint0_linear_148_108" x1="230.131" y1="11.9937" x2="2.47821" y2="11.9937" gradientUnits="userSpaceOnUse">
<stop stop-color="#00AEFA"/>
<stop offset="1" stop-color="#00FFFB"/>
</linearGradient>
<linearGradient id="paint1_linear_148_108" x1="230.131" y1="11.9937" x2="2.47824" y2="11.9937" gradientUnits="userSpaceOnUse">
<stop stop-color="#00AEFA"/>
<stop offset="1" stop-color="#00FFFB"/>
</linearGradient>
<linearGradient id="paint2_linear_148_108" x1="230.131" y1="11.9949" x2="2.47814" y2="11.9949" gradientUnits="userSpaceOnUse">
<stop stop-color="#00AEFA"/>
<stop offset="1" stop-color="#00FFFB"/>
</linearGradient>
<linearGradient id="paint3_linear_148_108" x1="230.131" y1="12.0013" x2="2.47814" y2="12.0013" gradientUnits="userSpaceOnUse">
<stop stop-color="#00AEFA"/>
<stop offset="1" stop-color="#00FFFB"/>
</linearGradient>
<linearGradient id="paint4_linear_148_108" x1="230.131" y1="11.9975" x2="2.47819" y2="11.9975" gradientUnits="userSpaceOnUse">
<stop stop-color="#00AEFA"/>
<stop offset="1" stop-color="#00FFFB"/>
</linearGradient>
<linearGradient id="paint5_linear_148_108" x1="230.131" y1="11.9949" x2="2.47825" y2="11.9949" gradientUnits="userSpaceOnUse">
<stop stop-color="#00AEFA"/>
<stop offset="1" stop-color="#00FFFB"/>
</linearGradient>
<linearGradient id="paint6_linear_148_108" x1="230.131" y1="11.9975" x2="2.47824" y2="11.9975" gradientUnits="userSpaceOnUse">
<stop stop-color="#00AEFA"/>
<stop offset="1" stop-color="#00FFFB"/>
</linearGradient>
<linearGradient id="paint7_linear_148_108" x1="230.131" y1="11.9937" x2="2.47803" y2="11.9937" gradientUnits="userSpaceOnUse">
<stop stop-color="#00AEFA"/>
<stop offset="1" stop-color="#00FFFB"/>
</linearGradient>
</defs>
</svg>
