<svg width="24" height="48" viewBox="0 0 24 48" fill="none" xmlns="http://www.w3.org/2000/svg">
<g clip-path="url(#clip0_217_77)">
<path d="M12 1C18.1 1 23 5.9 23 12V26C23 32.1 18.1 37 12 37C5.9 37 1 32.1 1 26V12C1 5.9 5.9 1 12 1ZM12 0C5.4 0 0 5.4 0 12V26C0 32.6 5.4 38 12 38C18.6 38 24 32.6 24 26V12C24 5.4 18.6 0 12 0Z" fill="white"/>
<path d="M12 16.5C10.6 16.5 9.5 15.4 9.5 14V8C9.5 6.6 10.6 5.5 12 5.5C13.4 5.5 14.5 6.6 14.5 8V14C14.5 15.4 13.4 16.5 12 16.5ZM12 6.5C11.2 6.5 10.5 7.2 10.5 8V14C10.5 14.8 11.2 15.5 12 15.5C12.8 15.5 13.5 14.8 13.5 14V8C13.5 7.2 12.8 6.5 12 6.5Z" fill="white"/>
<path d="M23.1001 41.4L22.8001 40.9C22.7001 40.8 22.6001 40.8 22.5001 40.8L12.0001 46.9L1.50006 40.8C1.40006 40.7 1.30006 40.8 1.20006 40.9L0.900064 41.4C0.800064 41.5 0.900064 41.6 1.00006 41.7L11.9001 48C11.9001 48 11.9001 48 12.0001 48C12.0001 48 12.0001 48 12.1001 48L23.0001 41.7C23.1001 41.6 23.1001 41.5 23.1001 41.4Z" fill="white"/>
</g>
<defs>
<clipPath id="clip0_217_77">
<rect width="24" height="48" fill="white"/>
</clipPath>
</defs>
</svg>
