<svg width="12" height="12" viewBox="0 0 12 12" fill="none" xmlns="http://www.w3.org/2000/svg">
<path d="M6.6999 6.00002L11.8999 0.800024C11.9999 0.700024 11.9999 0.600024 11.8999 0.500024L11.4999 0.100024C11.3999 2.44156e-05 11.2999 2.44156e-05 11.1999 0.100024L5.9999 5.30002L0.799902 0.100024C0.699902 2.44156e-05 0.599902 2.44156e-05 0.499902 0.100024L0.0999023 0.500024C-9.76548e-05 0.600024 -9.76548e-05 0.700024 0.0999023 0.800024L5.2999 6.00002L0.0999023 11.2C-9.76548e-05 11.3 -9.76548e-05 11.4 0.0999023 11.5L0.499902 11.9C0.599902 12 0.699902 12 0.799902 11.9L5.9999 6.70002L11.1999 11.9C11.2999 12 11.3999 12 11.4999 11.9L11.8999 11.5C11.9999 11.4 11.9999 11.3 11.8999 11.2L6.6999 6.00002Z" fill="url(#paint0_linear_148_428)"/>
<defs>
<linearGradient id="paint0_linear_148_428" x1="0.270602" y1="0.270724" x2="11.7292" y2="11.7293" gradientUnits="userSpaceOnUse">
<stop stop-color="#00AEFA"/>
<stop offset="1" stop-color="#00FFFB"/>
</linearGradient>
</defs>
</svg>
